<?xml version="1.0" encoding="UTF-8"?>
<svg id="Layer_1" data-name="Layer 1" xmlns="http://www.w3.org/2000/svg" viewBox="0 0 293.22 45.9">
  <defs>
    <style>
      .cls-1 {
        fill: #231f20;
      }
    </style>
  </defs>
  <path class="cls-1" d="M0,43.92c2.52,0,3.36-1.44,3.36-4.02V6.96c0-2.58-.9-4.02-3.36-4.02v-1.08l3.36-.06h15.78c10.98,0,15.12,6.24,15.12,13.02,0,7.68-4.68,14.64-16.56,14.64h-3.6v10.44c0,3,2.1,4.02,5.16,4.02v1.08l-5.16.06H3.36l-3.36-.06v-1.08ZM14.1,3.24v24.6h2.16c4.92,0,7.02-4.62,7.02-12.96s-2.04-11.64-6.6-11.64h-2.58Z"/>
  <path class="cls-1" d="M40.86,23.58c-2.52,0-3.78-1.38-3.78-3.24,0-4.32,4.86-6.84,13.08-6.84,7.62,0,12.3,3.36,12.3,9.42v16.02c0,2.64.24,3.54,1.32,3.54.6,0,1.38-.18,2.28-.72l.36.72c-2.4,2.46-5.82,3.42-8.88,3.42-2.46,0-4.14-1.02-4.92-3.3-1.74,1.86-4.44,3.3-7.44,3.3-6.36,0-9.66-3.06-9.66-7.98s4.62-7.86,12.12-9.42l4.5-.96v-6.36c0-4.8-.96-6.6-2.76-6.6-4.44,0-2.7,9-8.52,9ZM48.48,43.38c1.32,0,2.7-.78,3.84-2.1-.12-.6-.18-1.32-.18-2.1v-10.38l-1.92.54c-3.6,1.02-5.4,3.96-5.4,7.8,0,5.1,1.74,6.24,3.66,6.24Z"/>
  <path class="cls-1" d="M67.26,43.92h.66c2.04,0,2.7-1.68,2.7-4.08v-16.98c0-2.4-.66-4.68-2.7-4.68h-.66v-1.08c3.78,0,10.2-1.74,12.54-3.6l1.02.3v5.82c1.02-3.24,3.84-6.12,6.42-6.12,3,0,4.92,1.86,4.92,4.2,0,2.7-1.56,4.32-3.9,4.32-2.7,0-2.4-3-4.68-3-1.98,0-2.76,1.56-2.76,3.66v17.16c0,3.24,1.86,4.08,4.5,4.08h.66v1.08h-18.72v-1.08Z"/>
  <path class="cls-1" d="M92.4,30c0-9.48,6-16.5,15.48-16.5,1.8,0,3.42.66,4.74,1.74v-5.88c0-2.4-.66-4.68-3.9-4.68h-.66v-1.08c4.98,0,11.4-1.74,13.74-3.6l1.02.3v38.04c0,4.56,1.08,5.58,2.28,5.58h.48v1.08h-10.74l-1.02-.3v-2.16c-1.98,2.28-4.5,3.36-7.02,3.36-8.64,0-14.4-6.6-14.4-15.9ZM112.62,30.06c0-11.7-2.28-14.88-5.34-14.88s-4.74,3.18-4.74,14.88c0,10.32,1.38,14.16,4.86,14.16,2.46,0,5.22-1.14,5.22-14.16Z"/>
  <path class="cls-1" d="M143.4,45.9c-10.2,0-15.72-7.44-15.72-16.2s5.52-16.2,15.72-16.2,15.96,7.44,15.96,16.2-5.52,16.2-15.96,16.2ZM143.4,44.4c3.54,0,5.16-3.18,5.16-14.76s-1.62-14.64-5.16-14.64c-3.3,0-4.92,3.18-4.92,14.64s1.62,14.76,4.92,14.76Z"/>
  <path class="cls-1" d="M161.46,43.92h.66c2.04,0,2.7-1.68,2.7-4.08v-16.98c0-2.4-.66-4.68-2.7-4.68h-.66v-1.08c3.78,0,10.2-1.74,12.54-3.6l1.02.3v4.62c1.68-3,5.58-4.92,9.48-4.92,7.26,0,10.08,3.9,10.08,10.14v16.2c0,2.4.66,4.08,2.7,4.08h.66v1.08h-17.4v-1.08h.66c2.64,0,3.18-1.68,3.18-4.08v-18.3c0-3.84-.9-5.64-3.3-5.64-2.16,0-6.06,3.3-6.06,7.14v16.8c0,2.4.6,4.08,3.24,4.08h.66v1.08h-17.46v-1.08Z"/>
  <path class="cls-1" d="M243.42,43.92h.66c3.24,0,3.9-1.68,3.9-4.08V6.84l-13.5,39.06h-1.08l-14.1-37.26v26.52c0,6,4.02,8.76,8.04,8.76v1.08h-14.64v-1.08c2.22,0,4.8-3.9,4.8-8.76V4.44c-.66-1.02-1.5-1.56-2.82-1.56h-1.08v-1.08h14.04l10.44,27.48,9.6-27.48h15.06v1.08h-.66c-2.64,0-3.3,1.68-3.3,4.08v32.88c0,2.4.66,4.08,2.7,4.08h.66v1.08h-18.72v-1.08Z"/>
  <path class="cls-1" d="M264.36,29.94c0-9.48,5.34-16.44,15-16.44,8.64,0,13.86,5.16,13.86,12.3v.36h-18v.36c-.06,1.02-.06,2.1-.06,3.36,0,7.14,1.14,13.62,8.22,13.62,4.08,0,7.98-4.44,8.04-8.88h1.2c0,6.24-5.58,11.28-12.66,11.28-10.32,0-15.6-8.34-15.6-15.96ZM275.28,25.02l4.62-.36c2.28-.18,3.36-1.08,3.36-3.36,0-4.26-1.32-6.6-3.9-6.6s-3.6,1.98-4.08,10.32Z"/>
</svg>